HIERARCHY
ROOT Hips
{
	OFFSET 	 0.0	 0.0	 0.0
	CHANNELS 6 Xposition Yposition Zposition Xrotation Yrotation Zrotation 
	JOINT Spine
	{
		OFFSET 	 15.3169	 0.0	 -0.012192
		CHANNELS 3 Xrotation Yrotation Zrotation 
		JOINT Spine_1
		{
			OFFSET 	 15.3176	 0.0	 -0.012192
			CHANNELS 3 Xrotation Yrotation Zrotation 
			JOINT Neck
			{
				OFFSET 	 19.9142	 -1e-06	 1.563377
				CHANNELS 3 Xrotation Yrotation Zrotation 
				JOINT Head
				{
					OFFSET 	 6.926521	 0.0	 0.0
					CHANNELS 3 Xrotation Yrotation Zrotation 
					End Site
					{
						OFFSET 	 20.766598	 0.0	 0.0
					}
				}
				JOINT LeftShoulder
				{
					OFFSET 	 -6.201691	 -7.28423	 0.708832
					CHANNELS 3 Xrotation Yrotation Zrotation 
					JOINT LeftArm
					{
						OFFSET 	 14.107998	 1.3e-05	 0.0
						CHANNELS 3 Xrotation Yrotation Zrotation 
						JOINT LeftForeArm
						{
							OFFSET 	 28.5802	 0.0	 0.0
							CHANNELS 3 Xrotation Yrotation Zrotation 
							JOINT LeftHand
							{
								OFFSET 	 27.091896	 0.0	 0.0
								CHANNELS 3 Xrotation Yrotation Zrotation 
								JOINT Bip01_L_Finger0
								{
									OFFSET 	 2.676086	 3.19825	 0.628212
									CHANNELS 3 Xrotation Yrotation Zrotation 
									JOINT Bip01_L_Finger01
									{
										OFFSET 	 2.82782	 0.0	 0.0
										CHANNELS 3 Xrotation Yrotation Zrotation 
										JOINT Bip01_L_Finger02
										{
											OFFSET 	 3.100327	 0.0	 0.0
											CHANNELS 3 Xrotation Yrotation Zrotation 
											End Site
											{
												OFFSET 	 2.683968	 0.0	 0.0
											}
										}
									}
								}
								JOINT Bip01_L_Finger1
								{
									OFFSET 	 9.438972	 2.24244	 -0.203926
									CHANNELS 3 Xrotation Yrotation Zrotation 
									JOINT Bip01_L_Finger11
									{
										OFFSET 	 3.12896	 0.0	 0.0
										CHANNELS 3 Xrotation Yrotation Zrotation 
										JOINT Bip01_L_Finger12
										{
											OFFSET 	 2.379051	 0.0	 0.0
											CHANNELS 3 Xrotation Yrotation Zrotation 
											End Site
											{
												OFFSET 	 2.09993	 0.0	 0.0
											}
										}
									}
								}
								JOINT Bip01_L_Finger2
								{
									OFFSET 	 9.55928	 -0.145352	 -0.186424
									CHANNELS 3 Xrotation Yrotation Zrotation 
									JOINT Bip01_L_Finger21
									{
										OFFSET 	 3.801407	 0.0	 0.0
										CHANNELS 3 Xrotation Yrotation Zrotation 
										JOINT Bip01_L_Finger22
										{
											OFFSET 	 2.848793	 0.0	 0.0
											CHANNELS 3 Xrotation Yrotation Zrotation 
											End Site
											{
												OFFSET 	 2.01886	 0.0	 0.0
											}
										}
									}
								}
								JOINT Bip01_L_Finger3
								{
									OFFSET 	 8.993629	 -2.30169	 0.226974
									CHANNELS 3 Xrotation Yrotation Zrotation 
									JOINT Bip01_L_Finger31
									{
										OFFSET 	 3.369652	 0.0	 0.0
										CHANNELS 3 Xrotation Yrotation Zrotation 
										JOINT Bip01_L_Finger32
										{
											OFFSET 	 2.444229	 0.0	 0.0
											CHANNELS 3 Xrotation Yrotation Zrotation 
											End Site
											{
												OFFSET 	 2.057808	 0.0	 0.0
											}
										}
									}
								}
								JOINT Bip01_L_Finger4
								{
									OFFSET 	 8.023811	 -3.97473	 1.201897
									CHANNELS 3 Xrotation Yrotation Zrotation 
									JOINT Bip01_L_Finger41
									{
										OFFSET 	 2.908783	 0.0	 0.0
										CHANNELS 3 Xrotation Yrotation Zrotation 
										JOINT Bip01_L_Finger42
										{
											OFFSET 	 1.535797	 0.0	 0.0
											CHANNELS 3 Xrotation Yrotation Zrotation 
											End Site
											{
												OFFSET 	 1.630142	 0.0	 0.0
											}
										}
									}
								}
							}
						}
					}
				}
				JOINT RightShoulder
				{
					OFFSET 	 -6.20549	 7.280139	 0.70887
					CHANNELS 3 Xrotation Yrotation Zrotation 
					JOINT RightArm
					{
						OFFSET 	 14.107998	 -1e-05	 0.0
						CHANNELS 3 Xrotation Yrotation Zrotation 
						JOINT RightForeArm
						{
							OFFSET 	 28.5802	 -1.9e-05	 0.0
							CHANNELS 3 Xrotation Yrotation Zrotation 
							JOINT RightHand
							{
								OFFSET 	 27.092003	 0.0	 0.0
								CHANNELS 3 Xrotation Yrotation Zrotation 
								JOINT Bip01_R_Finger0
								{
									OFFSET 	 2.676079	 -3.19825	 0.628212
									CHANNELS 3 Xrotation Yrotation Zrotation 
									JOINT Bip01_R_Finger01
									{
										OFFSET 	 2.82782	 0.0	 0.0
										CHANNELS 3 Xrotation Yrotation Zrotation 
										JOINT Bip01_R_Finger02
										{
											OFFSET 	 3.100342	 0.0	 0.0
											CHANNELS 3 Xrotation Yrotation Zrotation 
											End Site
											{
												OFFSET 	 2.68396	 0.0	 0.0
											}
										}
									}
								}
								JOINT Bip01_R_Finger1
								{
									OFFSET 	 9.438957	 -2.242439	 -0.203918
									CHANNELS 3 Xrotation Yrotation Zrotation 
									JOINT Bip01_R_Finger11
									{
										OFFSET 	 3.12896	 0.0	 0.0
										CHANNELS 3 Xrotation Yrotation Zrotation 
										JOINT Bip01_R_Finger12
										{
											OFFSET 	 2.379051	 0.0	 0.0
											CHANNELS 3 Xrotation Yrotation Zrotation 
											End Site
											{
												OFFSET 	 2.099922	 0.0	 0.0
											}
										}
									}
								}
								JOINT Bip01_R_Finger2
								{
									OFFSET 	 9.559288	 0.145353	 -0.186417
									CHANNELS 3 Xrotation Yrotation Zrotation 
									JOINT Bip01_R_Finger21
									{
										OFFSET 	 3.801407	 0.0	 0.0
										CHANNELS 3 Xrotation Yrotation Zrotation 
										JOINT Bip01_R_Finger22
										{
											OFFSET 	 2.848793	 0.0	 0.0
											CHANNELS 3 Xrotation Yrotation Zrotation 
											End Site
											{
												OFFSET 	 2.01886	 0.0	 0.0
											}
										}
									}
								}
								JOINT Bip01_R_Finger3
								{
									OFFSET 	 8.993629	 2.301691	 0.226974
									CHANNELS 3 Xrotation Yrotation Zrotation 
									JOINT Bip01_R_Finger31
									{
										OFFSET 	 3.369652	 0.0	 0.0
										CHANNELS 3 Xrotation Yrotation Zrotation 
										JOINT Bip01_R_Finger32
										{
											OFFSET 	 2.444221	 0.0	 0.0
											CHANNELS 3 Xrotation Yrotation Zrotation 
											End Site
											{
												OFFSET 	 2.057823	 0.0	 0.0
											}
										}
									}
								}
								JOINT Bip01_R_Finger4
								{
									OFFSET 	 8.023811	 3.97473	 1.20192
									CHANNELS 3 Xrotation Yrotation Zrotation 
									JOINT Bip01_R_Finger41
									{
										OFFSET 	 2.908783	 0.0	 0.0
										CHANNELS 3 Xrotation Yrotation Zrotation 
										JOINT Bip01_R_Finger42
										{
											OFFSET 	 1.535797	 0.0	 0.0
											CHANNELS 3 Xrotation Yrotation Zrotation 
											End Site
											{
												OFFSET 	 1.630142	 0.0	 0.0
											}
										}
									}
								}
							}
						}
					}
				}
			}
		}
	}
	JOINT LeftUpLeg
	{
		OFFSET 	 -12.021299	 -8.83685	 -0.372498
		CHANNELS 3 Xrotation Yrotation Zrotation 
		JOINT LeftLeg
		{
			OFFSET 	 39.9035	 0.0	 0.0
			CHANNELS 3 Xrotation Yrotation Zrotation 
			JOINT LeftFoot
			{
				OFFSET 	 39.6689	 0.0	 0.0
				CHANNELS 3 Xrotation Yrotation Zrotation 
				JOINT Bip01_L_Toe0
				{
					OFFSET 	 10.162399	 -2e-06	 13.629601
					CHANNELS 3 Xrotation Yrotation Zrotation 
					End Site
					{
						OFFSET 	 8.38147	 0.0	 0.0
					}
				}
			}
		}
	}
	JOINT RightUpLeg
	{
		OFFSET 	 -12.021299	 8.836849	 -0.372444
		CHANNELS 3 Xrotation Yrotation Zrotation 
		JOINT RightLeg
		{
			OFFSET 	 39.9035	 0.0	 0.0
			CHANNELS 3 Xrotation Yrotation Zrotation 
			JOINT RightFoot
			{
				OFFSET 	 39.6689	 0.0	 0.0
				CHANNELS 3 Xrotation Yrotation Zrotation 
				JOINT Bip01_R_Toe0
				{
					OFFSET 	 10.162399	 -2e-06	 13.629601
					CHANNELS 3 Xrotation Yrotation Zrotation 
					End Site
					{
						OFFSET 	 8.38147	 0.0	 0.0
					}
				}
			}
		}
	}
}
MOTION
Frames: 9
Frame Time: 0.013889
1.97641086393	84.497177	8.7100156112	161.787373348	1.66726480446	-88.755043704	-2.302906	-16.910473	-1.202246	-0.0	0.0	0.0	2.736156	-25.611656	9.775117	-3.01051	-8.04544	-5.930436	161.495891	-22.672904	104.169259	5.767308	6.466345	-17.003896	-3e-06	25.310014	4e-06	-148.454285	1.270734	29.867041	-3e-06	-2e-06	1e-06	-1e-06	0.0	0.0	-2e-06	0.0	0.0	-2e-06	-2e-06	1e-06	-1e-06	0.0	0.0	-1e-06	0.0	0.0	-3e-06	-2e-06	1e-06	1e-06	0.0	2e-06	-0.0	0.0	2e-06	-2e-06	-2e-06	1e-06	-1e-06	0.0	0.0	1e-06	0.0	0.0	-2e-06	-2e-06	0.0	1e-06	1e-06	-2.82490003075e-30	1e-06	1e-06	-2.82490003075e-30	-162.72191	-15.844627	-98.128435	-5.201992	16.058695	10.024406	0.000119	42.883203	3e-06	156.605091	-10.461265	-37.135182	-0.0	0.0	2e-06	-0.0	0.0	3e-06	-0.0	0.0	1e-06	-0.0	-1e-06	1e-06	-1e-06	0.0	0.0	1e-06	0.0	0.0	-0.0	-1e-06	1e-06	-0.0	0.0	2e-06	-0.0	0.0	2e-06	-0.0	-1e-06	1e-06	-0.0	0.0	0.0	-0.0	0.0	0.0	-0.0	-1e-06	2e-06	-1e-06	0.0	0.0	-1e-06	0.0	0.0	35.928414	44.904457	167.732989	-9e-06	43.52994	1.2e-05	8.558395	-12.447297	4.651839	2e-06	-1e-06	-1e-06	-34.88222	45.438277	-164.5643	-3e-06	44.736206	1e-05	-2.586059	-12.367499	-3.90889	-2e-06	3e-06	-1e-06	
1.87094157372	84.016395	8.95295834246	160.979331117	1.77466118604	-88.7126685399	-2.324398	-17.398406	-1.257838	-0.0	1e-06	0.0	2.80104	-25.170574	9.79418	-2.905902	-7.596105	-5.989232	161.318632	-22.389724	104.176335	5.484315	6.535939	-17.266353	-9e-06	25.164213	5e-06	-148.507738	2.365053	30.283863	1e-06	3e-06	0.0	3e-06	1e-06	1.1299600123e-29	3e-06	1e-06	1e-06	1e-06	3e-06	0.0	3e-06	1e-06	1.1299600123e-29	5e-06	1e-06	-3.3898800369e-29	1e-06	3e-06	0.0	2e-06	0.0	0.0	5e-06	0.0	0.0	2e-06	3e-06	-1e-06	3e-06	1e-06	1.1299600123e-29	3e-06	1e-06	-2e-06	1e-06	3e-06	1e-06	2e-06	0.0	-1e-06	3e-06	1e-06	1.1299600123e-29	-162.798317	-15.603658	-98.161862	-5.131532	16.23887	10.101995	0.000118	42.721307	7e-06	156.922216	-10.193202	-37.230668	-1e-06	0.0	-1e-06	-1e-06	0.0	1e-06	-0.0	0.0	1e-06	-1e-06	0.0	-1e-06	-0.0	0.0	-1e-06	-1e-06	0.0	-1e-06	-0.0	0.0	0.0	-0.0	0.0	0.0	-0.0	0.0	1e-06	-1e-06	0.0	0.0	-0.0	0.0	0.0	-0.0	0.0	0.0	-1e-06	0.0	-1e-06	-0.0	0.0	0.0	-1e-06	0.0	2e-06	37.269972	46.345685	166.437466	-4e-06	44.766911	8e-06	8.788614	-12.765015	4.973193	-2e-06	2e-06	1e-06	-35.861884	46.991681	-163.424642	-4e-06	45.923689	8e-06	-2.705714	-12.556454	-4.07687	1e-06	1e-06	-1e-06	
1.7612805693	83.531189	9.18309590227	160.160629094	1.88349607232	-88.7009491999	-2.335575	-17.832278	-1.294505	-0.0	5e-06	0.0	2.863034	-24.744435	9.801334	-2.79438	-7.174963	-6.006257	161.145594	-22.09384	104.149704	5.280968	6.592321	-17.501284	-2e-06	24.981818	4e-06	-148.678793	3.304786	30.782922	-1e-06	0.0	-2e-06	-4e-06	-1e-06	1e-06	-0.0	0.0	0.0	-1e-06	0.0	-1e-06	-4e-06	-1e-06	1e-06	-0.0	0.0	0.0	-1e-06	0.0	-1e-06	-4e-06	-3e-06	1e-06	1e-06	-1e-06	2.82490003075e-30	-2e-06	0.0	-1e-06	-2e-06	0.0	-1e-06	-0.0	1e-06	-2e-06	-0.0	0.0	0.0	-4e-06	-1e-06	1e-06	2e-06	0.0	0.0	-162.889191	-15.345381	-98.228477	-5.014474	16.438016	10.178832	0.000117	42.552314	7e-06	157.177256	-9.994269	-37.344732	-0.0	0.0	-2e-06	-0.0	0.0	-2e-06	-0.0	0.0	0.0	-0.0	0.0	0.0	-1e-06	1e-06	-3e-06	-1e-06	0.0	-1e-06	-0.0	0.0	-2e-06	-0.0	1e-06	-3e-06	1e-06	0.0	-1e-06	1e-06	0.0	0.0	1e-06	0.0	-3e-06	1e-06	0.0	-3e-06	-0.0	0.0	-1e-06	-1e-06	0.0	-2e-06	-1e-06	0.0	0.0	38.791452	47.787668	165.039094	-5e-06	46.039966	1e-05	9.09696	-13.089921	5.342851	-1e-06	-2e-06	-1e-06	-36.928886	48.509745	-162.169691	-3e-06	47.10245	1.1e-05	-2.815445	-12.750907	-4.236879	-1e-06	0.0	-1e-06	
1.6611617178	83.024391	9.38515330296	159.364644349	2.0189064858	-88.6808725743	-2.348198	-18.260927	-1.338726	-0.0	-1e-06	0.0	2.965109	-24.299054	9.843465	-2.68319	-6.829307	-6.08583	160.943902	-21.808352	104.139657	5.149477	6.608058	-17.676673	-3e-06	24.815126	6e-06	-149.17405	4.28443	31.316397	6e-06	-2.2599200246e-29	-2e-06	-5e-06	0.0	2e-06	-0.0	0.0	2e-06	6e-06	-2.2599200246e-29	-2e-06	-5e-06	1e-06	3.3898800369e-29	-0.0	0.0	2e-06	6e-06	-2.2599200246e-29	-2e-06	-5e-06	0.0	2e-06	-0.0	0.0	4e-06	7e-06	0.0	-2e-06	-5e-06	0.0	1e-06	-0.0	0.0	3e-06	7e-06	0.0	-1e-06	-5e-06	-1e-06	2e-06	-0.0	-1e-06	4e-06	-162.978807	-15.047353	-98.272258	-4.875943	16.629986	10.263468	0.000115	42.35722	2e-06	157.431994	-9.791602	-37.419495	-0.0	0.0	1e-06	-1e-06	0.0	2e-06	-0.0	0.0	2e-06	-0.0	0.0	-2e-06	-0.0	0.0	0.0	-0.0	0.0	2e-06	-0.0	0.0	0.0	-1e-06	0.0	1e-06	-0.0	0.0	2e-06	-0.0	0.0	0.0	-1e-06	0.0	1e-06	-1e-06	0.0	2e-06	-0.0	0.0	1e-06	-0.0	0.0	-1e-06	-0.0	0.0	-1e-06	40.304642	49.172653	163.6203	-6e-06	47.304138	1.1e-05	9.321726	-13.430519	5.693165	-1e-06	4e-06	1.1299600123e-29	-38.050123	49.984721	-160.864114	-6e-06	48.278215	1e-05	-2.918892	-12.955253	-4.394543	-1e-06	-1e-06	1e-06	
1.55821012384	82.50119	9.57082552147	158.587973368	2.13870064064	-88.6585627989	-2.370421	-18.683465	-1.394017	-0.0	1e-06	0.0	3.042229	-23.866662	9.842192	-2.550707	-6.494452	-6.093907	160.74644	-21.512127	104.079975	5.036126	6.614422	-17.824282	-5e-06	24.670326	4e-06	-149.760353	5.294889	31.814717	-5e-06	-1e-06	-3.3898800369e-29	-3e-06	-2e-06	1e-06	4e-06	-1e-06	1e-06	-4e-06	-1e-06	0.0	-3e-06	-1e-06	1e-06	4e-06	-1e-06	1e-06	-6e-06	-1e-06	1e-06	-1e-06	5.6498000615e-30	4e-06	-1e-06	5.6498000615e-30	4e-06	-6e-06	-1e-06	1e-06	-3e-06	-1e-06	2e-06	-1e-06	-1e-06	2e-06	-6e-06	-1e-06	-2.2599200246e-29	-2e-06	0.0	3e-06	-2e-06	1e-06	4e-06	-163.050146	-14.75834	-98.337589	-4.725679	16.806941	10.322016	0.00012	42.172125	4e-06	157.734941	-9.605233	-37.560614	-1e-06	0.0	-1e-06	-1e-06	0.0	2e-06	-0.0	0.0	1e-06	-2e-06	0.0	0.0	-1e-06	0.0	2e-06	-0.0	0.0	1e-06	-1e-06	0.0	0.0	-1e-06	0.0	1e-06	-0.0	0.0	-1e-06	-1e-06	0.0	0.0	-1e-06	0.0	1e-06	-2e-06	-5.6498000615e-30	-2e-06	-1e-06	0.0	1e-06	-1e-06	0.0	2e-06	-0.0	0.0	-2e-06	41.784198	50.516882	162.173502	-6e-06	48.563	1.1e-05	9.460282	-13.778624	6.02489	-1e-06	2e-06	1e-06	-39.366605	51.403147	-159.446931	-4e-06	49.478194	9e-06	-3.101573	-13.188835	-4.584753	-1e-06	-4e-06	1e-06	
1.45755438855	81.958679	9.73886691963	157.823617098	2.24574276509	-88.6253785781	-2.404014	-19.096254	-1.455423	-0.0	-1e-06	0.0	3.104255	-23.430962	9.825934	-2.413404	-6.182949	-6.085741	160.567217	-21.151356	104.054703	4.8666	6.638422	-17.995737	-6e-06	24.54652	6e-06	-150.334923	6.320159	32.362089	1e-06	1e-06	-1e-06	-4e-06	-1e-06	1e-06	-1e-06	0.0	0.0	1e-06	1e-06	-2.82490003075e-30	-4e-06	-2e-06	1e-06	-1e-06	-1e-06	-1e-06	1e-06	1e-06	-2.82490003075e-30	-0.0	-1e-06	1e-06	1e-06	0.0	2e-06	1e-06	1e-06	-2e-06	-2e-06	5.6498000615e-30	2e-06	3e-06	0.0	1e-06	-2e-06	0.0	-1e-06	-2e-06	-1e-06	1e-06	1e-06	0.0	1e-06	-163.113481	-14.470516	-98.394689	-4.534319	16.97909	10.342038	0.000119	42.006633	7e-06	158.046247	-9.436024	-37.697385	2e-06	0.0	-1e-06	-0.0	0.0	1e-06	-1e-06	0.0	1e-06	2e-06	0.0	-1e-06	-0.0	0.0	3e-06	-2e-06	0.0	0.0	1e-06	0.0	-1e-06	-1e-06	0.0	0.0	-0.0	0.0	0.0	1e-06	0.0	-1e-06	-0.0	0.0	2e-06	-1e-06	0.0	0.0	2e-06	0.0	0.0	-2e-06	5.6498000615e-30	2e-06	-2e-06	1e-06	-1e-06	43.147401	51.839182	160.732865	-4e-06	49.800272	1.4e-05	9.457363	-14.128288	6.307244	-3e-06	-1e-06	1e-06	-40.80244	52.780458	-157.9478	-4e-06	50.684754	1.7e-05	-3.300758	-13.444882	-4.788193	-3e-06	4e-06	0.0	
1.34632837927	81.405105	9.90015848671	157.096787019	2.34055147307	-88.5887825143	-2.447152	-19.526568	-1.523181	-0.0	0.0	0.0	3.165876	-22.999299	9.83276	-2.287212	-5.876635	-6.101067	160.39525	-20.822578	104.044355	4.640396	6.675374	-18.148789	-5e-06	24.45872	4e-06	-150.79581	7.403464	32.881193	-0.0	1e-06	-1e-06	2e-06	0.0	-1e-06	-2e-06	1e-06	-2e-06	-0.0	1e-06	-1e-06	2e-06	1e-06	-2e-06	-2e-06	-5.6498000615e-30	-2e-06	-0.0	1e-06	-2e-06	-1e-06	-1e-06	-2.82490003075e-30	-1e-06	-1e-06	-1e-06	-0.0	1e-06	-2e-06	4e-06	1e-06	1e-06	-1e-06	0.0	-1e-06	-1e-06	0.0	-1e-06	-0.0	-1e-06	1e-06	-1e-06	0.0	2e-06	-163.171401	-14.188907	-98.444078	-4.364489	17.1371	10.372368	0.000116	41.847442	4e-06	158.296819	-9.26755	-37.899026	1e-06	0.0	0.0	-1e-06	0.0	-2e-06	-0.0	0.0	1e-06	1e-06	-1e-06	2.82490003075e-30	-0.0	0.0	-2e-06	-0.0	0.0	0.0	1e-06	0.0	0.0	-1e-06	0.0	-3e-06	-0.0	0.0	0.0	1e-06	0.0	0.0	-0.0	0.0	-3e-06	-1e-06	0.0	0.0	1e-06	0.0	1e-06	-1e-06	0.0	-3e-06	-0.0	0.0	-1e-06	44.479879	53.117087	159.28873	-1e-06	51.036239	1.1e-05	9.397885	-14.491515	6.553217	1e-06	-1e-06	2.82490003075e-30	-42.250413	54.10285	-156.434818	-4e-06	51.891529	1.6e-05	-3.458028	-13.72921	-4.970768	2e-06	4e-06	-2.2599200246e-29	
1.24981673868	80.810692	10.0465727012	156.393604056	2.41155818673	-88.5471154122	-2.497563	-19.964754	-1.593265	-0.0	8e-06	1e-06	3.224008	-22.576693	9.853104	-2.167838	-5.565113	-6.128443	160.208017	-20.515411	104.045346	4.356082	6.722501	-18.313499	-3e-06	24.402024	3e-06	-151.219664	8.579624	33.305126	3e-06	0.0	1e-06	6e-06	1e-06	-2.2599200246e-29	3e-06	0.0	1e-06	3e-06	0.0	1e-06	3e-06	0.0	0.0	3e-06	0.0	1e-06	3e-06	0.0	2e-06	-2e-06	-5.6498000615e-30	-2e-06	-0.0	0.0	0.0	3e-06	0.0	2e-06	3e-06	0.0	0.0	3e-06	0.0	2e-06	1e-06	-1e-06	1e-06	2e-06	0.0	1e-06	-0.0	0.0	-1e-06	-163.228511	-13.928322	-98.484554	-4.203273	17.284482	10.40866	0.000115	41.682046	1e-06	158.495633	-9.106351	-38.094663	-0.0	0.0	0.0	-2e-06	0.0	-1e-06	-0.0	0.0	-1e-06	-0.0	0.0	-1e-06	-1e-06	-5.6498000615e-30	-4e-06	-0.0	0.0	-2e-06	-0.0	0.0	-1e-06	-3e-06	0.0	-2e-06	-2e-06	0.0	0.0	-0.0	1e-06	-1e-06	-0.0	1e-06	-3e-06	-0.0	1e-06	-3e-06	-0.0	1e-06	-2e-06	-1e-06	0.0	-1e-06	-0.0	0.0	2e-06	45.794718	54.370017	157.812139	-3e-06	52.285511	1.1e-05	9.305056	-14.864435	6.770056	-1e-06	3e-06	1e-06	-43.855289	55.369775	-154.826636	-1.5e-05	53.113412	1.4e-05	-3.674281	-14.031044	-5.175834	1e-06	4e-06	-1.1299600123e-29	
1.14898155807	80.224891	10.1779873189	155.728828325	2.47392707826	-88.5205615744	-2.550006	-20.436056	-1.639239	-0.0	6e-06	0.0	3.269166	-22.138907	9.852785	-2.044235	-5.262924	-6.141673	160.03903	-20.236589	104.051985	4.082239	6.779731	-18.484126	-5e-06	24.340622	5e-06	-151.586691	9.719431	33.810355	2e-06	0.0	0.0	4e-06	-1e-06	0.0	2e-06	-5.6498000615e-30	2e-06	2e-06	0.0	-1e-06	4e-06	-1e-06	0.0	2e-06	-1e-06	5.6498000615e-30	2e-06	0.0	-1e-06	2e-06	-1e-06	2e-06	2e-06	-1e-06	3e-06	2e-06	0.0	-1e-06	4e-06	-1e-06	1e-06	4e-06	0.0	3e-06	2e-06	0.0	0.0	2e-06	-1e-06	2e-06	-1e-06	0.0	2e-06	-163.290765	-13.679525	-98.564078	-4.086147	17.425582	10.484758	0.000116	41.523449	1e-06	158.6889	-8.924639	-38.23974	1e-06	1e-06	-2e-06	-0.0	0.0	-1e-06	-1e-06	0.0	-1e-06	1e-06	0.0	-3e-06	-1e-06	0.0	-1e-06	-0.0	0.0	-1e-06	1e-06	0.0	-1e-06	-0.0	0.0	0.0	-2e-06	0.0	-1e-06	1e-06	0.0	-1e-06	1e-06	0.0	0.0	-1e-06	0.0	-2e-06	1e-06	1e-06	-2.82490003075e-30	-0.0	0.0	0.0	-2e-06	0.0	0.0	47.063842	55.602098	156.361899	-9e-06	53.544691	1.1e-05	9.166607	-15.253243	6.940024	-1e-06	-1e-06	-1e-06	-45.54226	56.5654	-153.14753	-9e-06	54.344277	1.5e-05	-3.88181	-14.347874	-5.396992	-0.0	3e-06	-1e-06	
